<?xml version="1.0" standalone="no"?>
<!DOCTYPE svg PUBLIC "-//W3C//DTD SVG 20010904//EN"
 "http://www.w3.org/TR/2001/REC-SVG-20010904/DTD/svg10.dtd">
<svg version="1.0" xmlns="http://www.w3.org/2000/svg"
 width="960.000000pt" height="960.000000pt" viewBox="0 0 960.000000 960.000000"
 preserveAspectRatio="xMidYMid meet">
<metadata>
Created by potrace 1.14, written by Peter Selinger 2001-2017
</metadata>
<g transform="translate(0.000000,960.000000) scale(0.100000,-0.100000)"
fill="#000000" stroke="none">
<path d="M849 9596 c-2 -2 -32 -7 -66 -10 -35 -4 -68 -9 -75 -11 -7 -2 -24 -7
-38 -9 -102 -20 -240 -77 -324 -135 -61 -42 -138 -121 -186 -192 -22 -32 -40
-61 -40 -65 0 -3 -12 -30 -26 -60 -27 -58 -60 -164 -69 -224 -3 -19 -9 -47
-13 -60 -11 -38 -12 -7942 -1 -8030 35 -281 140 -483 320 -618 31 -23 60 -42
66 -42 6 0 16 -6 22 -14 27 -32 242 -97 381 -115 83 -11 7991 -10 8025 0 18 6
91 20 112 21 23 2 175 59 223 83 189 95 316 252 384 475 57 185 54 -65 54
4210 0 3960 0 3977 -31 4130 -29 146 -109 305 -204 405 -43 46 -145 125 -160
125 -6 0 -16 6 -22 14 -27 32 -242 97 -381 115 -70 9 -7941 16 -7951 7z"/>
</g>
</svg>
